#tb 0: 1/30
0,          0,          0,        1,    38016, 98bd0af6928c144888a9c320270e9f0e
0,          1,          1,        1,    38016, 9ff7cff703d58481acd233451388377c
0,          2,          2,        1,    38016, e4cd8815527846cc782ea61ef5a46e49
0,          3,          3,        1,    38016, db45275b87e194e5b505dd8c47da4f5d
0,          4,          4,        1,    38016, c889d0f7bd34faf4df0e0a9eb9fc292a
0,          5,          5,        1,    38016, 4dbfb1727baf9b75980e7fdd44ca0924
0,          6,          6,        1,    38016, 5f217ac95c891dc81f7193fc5352d582
0,          7,          7,        1,    38016, 11166789635e472f629510f551b11e2c
0,          8,          8,        1,    38016, 336e6e42e67e1ccb7cda6298cb63f192
0,          9,          9,        1,    38016, 02dbcff56882e304d5043d0f9b1ff9ff
0,         10,         10,        1,    38016, fe033ea2c6b8b81a9328b470f8b0d6bb
0,         11,         11,        1,    38016, 0e3330fe9a7c0439ff53f18f0d15eb48
0,         12,         12,        1,    38016, 6c0d7e042a3bb32a128c4a405f59b426
0,         13,         13,        1,    38016, 7e51afc33dbf4b77fc5735f5d9ec0248
0,         14,         14,        1,    38016, a8381f193f34a5071b8eeba7f5cd1968
0,         15,         15,        1,    38016, 501a7914b47ff85c24f0533ee98b9fe9
0,         16,         16,        1,    38016, 00bd5fbb7e3b66514e6c77c3a5f118c3
0,         17,         17,        1,    38016, 23e296d12a45909cadda252b9f4e67bd
0,         18,         18,        1,    38016, fa0b5c69bacf766551bebdde0910eb9f
0,         19,         19,        1,    38016, f5cc24d10d58ebc50503ca321db708cc
0,         20,         20,        1,    38016, 3997eb9ff6231dee9e23752776113cd6
0,         21,         21,        1,    38016, 68d4c9cd494d91dd70e7a94c7a4b9a12
0,         22,         22,        1,    38016, 647b34f3aa7318adce68803ba00104fb
0,         23,         23,        1,    38016, ffed5301bd6fddd1d24d12e6096cc8a6
0,         24,         24,        1,    38016, 9511388180811c10d166886868d6e71c
0,         25,         25,        1,    38016, a9b330803b8ccd91596591c0449423ab
0,         26,         26,        1,    38016, 69b192888cda09dac658d5820183a2e8
0,         27,         27,        1,    38016, 8886e5851e60a7474cc9e214ba6373ad
0,         28,         28,        1,    38016, f59e354deedb129a90ab3922838b03d3
